<mxfile host="app.diagrams.net" agent="Mozilla/5.0 (Macintosh; Intel Mac OS X 10_15_7) AppleWebKit/537.36 (KHTML, like Gecko) Chrome/134.0.0.0 Safari/537.36" version="26.1.1">
  <diagram name="Page-1" id="d0x9brUHW4w9_mhMAJZr">
    <mxGraphModel dx="2931" dy="1857" grid="1" gridSize="10" guides="1" tooltips="1" connect="1" arrows="1" fold="1" page="1" pageScale="1" pageWidth="827" pageHeight="1169" math="0" shadow="0">
      <root>
        <mxCell id="0" />
        <mxCell id="1" parent="0" />
        <mxCell id="c_EteoaEhPP3sGkDmMLz-1" value="ElevatorMaintenanceUnit" style="swimlane;fontStyle=1;align=center;verticalAlign=top;childLayout=stackLayout;horizontal=1;startSize=26;horizontalStack=0;resizeParent=1;resizeParentMax=0;resizeLast=0;collapsible=1;marginBottom=0;whiteSpace=wrap;html=1;" vertex="1" parent="1">
          <mxGeometry x="60" y="60" width="240" height="120" as="geometry" />
        </mxCell>
        <mxCell id="c_EteoaEhPP3sGkDmMLz-2" value="- robotId: Int" style="text;strokeColor=none;fillColor=none;align=left;verticalAlign=top;spacingLeft=4;spacingRight=4;overflow=hidden;rotatable=0;points=[[0,0.5],[1,0.5]];portConstraint=eastwest;whiteSpace=wrap;html=1;" vertex="1" parent="c_EteoaEhPP3sGkDmMLz-1">
          <mxGeometry y="26" width="240" height="26" as="geometry" />
        </mxCell>
        <mxCell id="c_EteoaEhPP3sGkDmMLz-3" value="" style="line;strokeWidth=1;fillColor=none;align=left;verticalAlign=middle;spacingTop=-1;spacingLeft=3;spacingRight=3;rotatable=0;labelPosition=right;points=[];portConstraint=eastwest;strokeColor=inherit;" vertex="1" parent="c_EteoaEhPP3sGkDmMLz-1">
          <mxGeometry y="52" width="240" height="8" as="geometry" />
        </mxCell>
        <mxCell id="c_EteoaEhPP3sGkDmMLz-4" value="+ diagnose(robotId, elevatorId): type&lt;div&gt;+ service(robotId, elevatorId)&lt;/div&gt;&lt;div&gt;+ repair(robotId, elevatorId)&lt;/div&gt;" style="text;strokeColor=none;fillColor=none;align=left;verticalAlign=top;spacingLeft=4;spacingRight=4;overflow=hidden;rotatable=0;points=[[0,0.5],[1,0.5]];portConstraint=eastwest;whiteSpace=wrap;html=1;" vertex="1" parent="c_EteoaEhPP3sGkDmMLz-1">
          <mxGeometry y="60" width="240" height="60" as="geometry" />
        </mxCell>
      </root>
    </mxGraphModel>
  </diagram>
</mxfile>
